<?xml version="1.0" encoding="utf-8"?>
<!-- Generator: Adobe Illustrator 16.0.3, SVG Export Plug-In . SVG Version: 6.00 Build 0)  -->
<!DOCTYPE svg PUBLIC "-//W3C//DTD SVG 1.1//EN" "http://www.w3.org/Graphics/SVG/1.1/DTD/svg11.dtd">
<svg version="1.1" id="图层_1" xmlns="http://www.w3.org/2000/svg" xmlns:xlink="http://www.w3.org/1999/xlink" x="0px" y="0px"
	 width="60px" height="60px" viewBox="0 0 60 60" enable-background="new 0 0 60 60" xml:space="preserve">
<path fill-rule="evenodd" clip-rule="evenodd" fill="none" stroke="#B5B5B6" stroke-miterlimit="10" d="M52.28,32.709l-26.451,15.26
	c0.506-2.119,1.244-4.488,2.318-6.834c0.674-1.471,1.359-2.779,2.014-3.922l10.595-6.121c0.354-0.205,0.557-0.553,0.558-0.962
	c0.001-0.409-0.199-0.759-0.553-0.965l-4.687-2.767c0.698-0.95,1.522-1.977,2.403-2.876c0.914-0.935,1.899-1.679,2.882-2.275
	l10.921,6.315c0.948,0.547,1.485,1.48,1.485,2.574C53.766,31.229,53.229,32.162,52.28,32.709 M17.067,52.138
	c-0.242,0.534-0.581,1.143-0.96,1.408c-0.594,0.416-2.006,1.22-2.006,1.22c-0.948,0.549-2.025,0.549-2.973,0.001
	c-0.948-0.547-1.487-1.464-1.487-2.558V8.063c0-1.095,0.539-2.011,1.487-2.559s2.025-0.547,2.973,0L31.43,15.515
	C28.495,16.594,26.026,17.97,24,19.38l-5.548-3.238c-0.355-0.208-0.76-0.209-1.117-0.004c-0.356,0.206-0.56,0.556-0.56,0.967v9.315
	V33.7c6.755-9.711,18.195-21.438,33.37-19.841C27.924,18.982,18.746,46.439,17.067,52.138"/>
</svg>
